<svg width="24" height="19" viewBox="0 0 24 19" fill="none" xmlns="http://www.w3.org/2000/svg">
<path fill-rule="evenodd" clip-rule="evenodd" d="M4.33937 0.00105102C4.21637 0.00766901 4.09924 0.0557234 4.00703 0.137392L0.189499 3.40956C0.0691887 3.51318 0 3.66407 0 3.82285C0 3.98162 0.0691887 4.13252 0.189499 4.23613L4.00703 7.5083C4.15468 7.63622 4.35936 7.67563 4.54395 7.6117C4.72854 7.54776 4.86499 7.3902 4.90189 7.19836C4.93879 7.00653 4.87052 6.80959 4.72282 6.68174L2.0301 4.37247H20.7258C21.0139 4.37653 21.2797 4.11526 21.2797 3.82711C21.2797 3.53896 21.0139 3.27767 20.7258 3.28175H2.02158L4.72282 0.963956C4.90369 0.812823 4.96701 0.562608 4.87981 0.343635C4.79261 0.124661 4.57461 -0.0135248 4.33937 0.00105102ZM19.5839 10.3629C19.3627 10.3801 19.1739 10.5297 19.1065 10.7411C19.0391 10.9526 19.1066 11.1838 19.2772 11.3258L21.9784 13.6436H3.2742H3.22308C2.93749 13.657 2.68989 13.9289 2.70328 14.2146C2.71666 14.5001 2.98862 14.7478 3.2742 14.7344H21.9699L19.2772 17.0436C19.1295 17.1715 19.0613 17.3684 19.0982 17.5602C19.1351 17.752 19.2715 17.9096 19.4561 17.9735C19.6407 18.0374 19.8453 17.998 19.993 17.8702L23.8105 14.598C23.9308 14.4944 24 14.3435 24 14.1847C24 14.026 23.9308 13.8751 23.8105 13.7714L19.993 10.4993C19.8811 10.3996 19.7332 10.3503 19.5839 10.3629Z" fill="#333333"/>
</svg>
